HIERARCHY
ROOT hip
{
  OFFSET 0.00112043 5.09927 -9.65472
  CHANNELS 6 Xposition Yposition Zposition Zrotation Xrotation Yrotation
  JOINT abdomen
  {
    OFFSET 0 -1.186 -1.5018
    CHANNELS 3 Zrotation Xrotation Yrotation
    JOINT abdomen2
    {
      OFFSET 0 9.964 0.2134
      CHANNELS 3 Zrotation Xrotation Yrotation
      JOINT chest
      {
        OFFSET 0 13.134 -3.2573
        CHANNELS 3 Zrotation Xrotation Yrotation
        JOINT neck
        {
          OFFSET 0 20.686 -1.6905
          CHANNELS 3 Zrotation Xrotation Yrotation
          JOINT head
          {
            OFFSET 0 7.238 -0.1237
            CHANNELS 3 Zrotation Xrotation Yrotation
            End Site
            {
              OFFSET 0 0 0
            }
          }
        }
        JOINT lCollar
        {
          OFFSET 1.7069 20.075 5.0056
          CHANNELS 3 Zrotation Xrotation Yrotation
          JOINT lShldr
          {
            OFFSET 13.6458 -0.047 -4.849
            CHANNELS 3 Zrotation Xrotation Yrotation
            JOINT lForeArm
            {
              OFFSET 28.3255 -0.9759 2.2888
              CHANNELS 3 Zrotation Xrotation Yrotation
              JOINT lHand
              {
                OFFSET 22.1583 -0.53 10.8316
                CHANNELS 3 Zrotation Xrotation Yrotation
                JOINT lThumb1
                {
                  OFFSET 0.786 0.112 2.5817
                  CHANNELS 3 Zrotation Xrotation Yrotation
                  JOINT lThumb2
                  {
                    OFFSET 0.3601 -0.878 4.2331
                    CHANNELS 3 Zrotation Xrotation Yrotation
                    JOINT lThumb2_End
                    {
                      OFFSET 1.8127 -1.216 2.2227
                      CHANNELS 3 Zrotation Xrotation Yrotation
                      End Site
                      {
                        OFFSET 0.0181 -0.0122 0.0222
                      }
                    }
                  }
                }
                JOINT lCarpal1
                {
                  OFFSET 0.9571 1.114 1.7695
                  CHANNELS 3 Zrotation Xrotation Yrotation
                  JOINT lIndex1
                  {
                    OFFSET 4.1246 0.487 4.1451
                    CHANNELS 3 Zrotation Xrotation Yrotation
                    JOINT lIndex2
                    {
                      OFFSET 3.4052 -1.454 2.7682
                      CHANNELS 3 Zrotation Xrotation Yrotation
                      JOINT lIndex2_End
                      {
                        OFFSET 1.4531 -1.795 1.2713
                        CHANNELS 3 Zrotation Xrotation Yrotation
                        End Site
                        {
                          OFFSET 0.0145 -0.0179 0.0127
                        }
                      }
                    }
                  }
                  JOINT lMid1
                  {
                    OFFSET 5.6954 0.21 2.1184
                    CHANNELS 3 Zrotation Xrotation Yrotation
                    JOINT lMid2
                    {
                      OFFSET 3.9766 -1.54 2.3863
                      CHANNELS 3 Zrotation Xrotation Yrotation
                      JOINT lMid2_End
                      {
                        OFFSET 1.4042 -1.926 1.125
                        CHANNELS 3 Zrotation Xrotation Yrotation
                        End Site
                        {
                          OFFSET 0.014 -0.0193 0.0113
                        }
                      }
                    }
                  }
                }
                JOINT lCarpal2
                {
                  OFFSET 2.0956 0.66 -0.3894
                  CHANNELS 3 Zrotation Xrotation Yrotation
                  JOINT lRing1
                  {
                    OFFSET 5.0395 -0.09 2.4971
                    CHANNELS 3 Zrotation Xrotation Yrotation
                    JOINT lRing2
                    {
                      OFFSET 3.7921 -1.552 1.4806
                      CHANNELS 3 Zrotation Xrotation Yrotation
                      JOINT lRing2_End
                      {
                        OFFSET 1.4655 -1.808 0.9609
                        CHANNELS 3 Zrotation Xrotation Yrotation
                        End Site
                        {
                          OFFSET 0.0147 -0.0181 0.0096
                        }
                      }
                    }
                  }
                  JOINT lPinky1
                  {
                    OFFSET 4.9141 -1.269 0.3591
                    CHANNELS 3 Zrotation Xrotation Yrotation
                    JOINT lPinky2
                    {
                      OFFSET 3.1477 -1.685 0.8462
                      CHANNELS 3 Zrotation Xrotation Yrotation
                      JOINT lPinky2_End
                      {
                        OFFSET 0.8055 -1.585 0.7955
                        CHANNELS 3 Zrotation Xrotation Yrotation
                        End Site
                        {
                          OFFSET 0.0081 -0.0158 0.008
                        }
                      }
                    }
                  }
                }
              }
            }
          }
        }
        JOINT rCollar
        {
          OFFSET -1.7069 20.075 5.0056
          CHANNELS 3 Zrotation Xrotation Yrotation
          JOINT rShldr
          {
            OFFSET -13.6458 -0.047 -4.849
            CHANNELS 3 Zrotation Xrotation Yrotation
            JOINT rForeArm
            {
              OFFSET -28.3255 -0.9759 2.2888
              CHANNELS 3 Zrotation Xrotation Yrotation
              JOINT rHand
              {
                OFFSET -22.1583 -0.53 10.8316
                CHANNELS 3 Zrotation Xrotation Yrotation
                JOINT rThumb1
                {
                  OFFSET -0.786 0.112 2.5817
                  CHANNELS 3 Zrotation Xrotation Yrotation
                  JOINT rThumb2
                  {
                    OFFSET -0.3601 -0.878 4.2331
                    CHANNELS 3 Zrotation Xrotation Yrotation
                    JOINT rThumb2_End
                    {
                      OFFSET -1.8127 -1.216 2.2227
                      CHANNELS 3 Zrotation Xrotation Yrotation
                      End Site
                      {
                        OFFSET -0.0181 -0.0122 0.0222
                      }
                    }
                  }
                }
                JOINT rCarpal1
                {
                  OFFSET -0.9571 1.114 1.7695
                  CHANNELS 3 Zrotation Xrotation Yrotation
                  JOINT rIndex1
                  {
                    OFFSET -4.1246 0.487 4.1451
                    CHANNELS 3 Zrotation Xrotation Yrotation
                    JOINT rIndex2
                    {
                      OFFSET -3.4052 -1.454 2.7682
                      CHANNELS 3 Zrotation Xrotation Yrotation
                      JOINT rIndex2_End
                      {
                        OFFSET -1.4531 -1.795 1.2713
                        CHANNELS 3 Zrotation Xrotation Yrotation
                        End Site
                        {
                          OFFSET -0.0145 -0.018 0.0127
                        }
                      }
                    }
                  }
                  JOINT rMid1
                  {
                    OFFSET -5.6954 0.21 2.1184
                    CHANNELS 3 Zrotation Xrotation Yrotation
                    JOINT rMid2
                    {
                      OFFSET -3.9766 -1.54 2.3863
                      CHANNELS 3 Zrotation Xrotation Yrotation
                      JOINT rMid2_End
                      {
                        OFFSET -1.4042 -1.926 1.125
                        CHANNELS 3 Zrotation Xrotation Yrotation
                        End Site
                        {
                          OFFSET -0.014 -0.0193 0.0113
                        }
                      }
                    }
                  }
                }
                JOINT rCarpal2
                {
                  OFFSET -2.0956 0.66 -0.3894
                  CHANNELS 3 Zrotation Xrotation Yrotation
                  JOINT rRing1
                  {
                    OFFSET -5.0395 -0.09 2.4971
                    CHANNELS 3 Zrotation Xrotation Yrotation
                    JOINT rRing2
                    {
                      OFFSET -3.7921 -1.552 1.4806
                      CHANNELS 3 Zrotation Xrotation Yrotation
                      JOINT rRing2_End
                      {
                        OFFSET -1.4655 -1.808 0.9609
                        CHANNELS 3 Zrotation Xrotation Yrotation
                        End Site
                        {
                          OFFSET -0.0147 -0.0181 0.0096
                        }
                      }
                    }
                  }
                  JOINT rPinky1
                  {
                    OFFSET -4.9141 -1.269 0.3592
                    CHANNELS 3 Zrotation Xrotation Yrotation
                    JOINT rPinky2
                    {
                      OFFSET -3.1477 -1.685 0.8462
                      CHANNELS 3 Zrotation Xrotation Yrotation
                      JOINT rPinky2_End
                      {
                        OFFSET -0.8055 -1.585 0.7955
                        CHANNELS 3 Zrotation Xrotation Yrotation
                        End Site
                        {
                          OFFSET -0.0081 -0.0158 0.008
                        }
                      }
                    }
                  }
                }
              }
            }
          }
        }
      }
    }
  }
  JOINT lThigh
  {
    OFFSET 8.367 -8.2066 0.5982
    CHANNELS 3 Zrotation Xrotation Yrotation
    JOINT lShin
    {
      OFFSET 2.1923 -43.463 -0.4932
      CHANNELS 3 Zrotation Xrotation Yrotation
      JOINT lFoot
      {
        OFFSET 0.7333 -45.8593 -2.6451
        CHANNELS 3 Zrotation Xrotation Yrotation
        End Site
        {
          OFFSET 2.6618 -4.2699 12.3931
        }
      }
    }
  }
  JOINT rThigh
  {
    OFFSET -8.367 -8.2066 0.5982
    CHANNELS 3 Zrotation Xrotation Yrotation
    JOINT rShin
    {
      OFFSET -2.1923 -43.463 -0.4931
      CHANNELS 3 Zrotation Xrotation Yrotation
      JOINT rFoot
      {
        OFFSET -0.7333 -45.8593 -2.6451
        CHANNELS 3 Zrotation Xrotation Yrotation
        End Site
        {
          OFFSET -2.6618 -4.2699 12.3931
        }
      }
    }
  }
}
MOTION
Frames:	6
Frame Time:	0.0333333
-38.0909 12.4761 -23.8791 -0 90 -179.996 -0.30497 4.69876 -0.162152 -0.599586 9.3983 -0.300634 -0.599586 9.39831 -0.300634 1.21774e-005 -12.4865 1.55936e-006 -0.00808079 -5.92606 7.89646 -5.84034 10.666 -2.73858 -46.2516 -0.976247 40.8008 12.4159 56.7591 -52.1559 46.4879 16.2943 1.41489 -1.54754e-006 1.10733e-006 1.32763e-007 -1.59028e-015 0 3.18055e-015 -3.7622e-007 -1.98775e-007 2.87049e-008 6.62086e-032 -1.19271e-015 3.18055e-015 -1.54754e-006 1.10733e-006 1.32763e-007 -1.59028e-015 1.59028e-015 -6.36111e-015 -3.7622e-007 -1.98775e-007 2.87049e-008 -1.54754e-006 1.10733e-006 1.32763e-007 -1.59028e-015 1.59028e-015 -6.36111e-015 -3.7622e-007 -1.98775e-007 2.87049e-008 6.62086e-032 -1.19271e-015 3.18055e-015 -1.54754e-006 1.10733e-006 1.32763e-007 -1.59028e-015 1.59028e-015 -6.36111e-015 -3.7622e-007 -1.98775e-007 2.87049e-008 -1.54754e-006 1.10733e-006 1.32763e-007 -1.59028e-015 1.59028e-015 -6.36111e-015 -3.7622e-007 -1.98775e-007 2.87049e-008 5.65161 10.6032 2.67094 46.2664 -1.07144 -39.6445 -13.1754 55.5297 50.5654 -46.244 14.9371 -0.0537459 2.38542e-015 -1.59028e-015 3.18055e-015 -7.5406e-007 -5.78997e-007 6.80675e-008 -4.41391e-032 -7.95139e-016 -3.18055e-015 2.38542e-015 -7.95139e-016 3.18055e-015 8.82781e-032 7.95139e-016 -6.36111e-015 -7.5406e-007 -5.78997e-007 6.80675e-008 7.95139e-016 7.95139e-016 -6.36111e-015 8.82781e-032 7.95139e-016 -6.36111e-015 -7.5406e-007 -5.78997e-007 6.80675e-008 7.95139e-016 7.95139e-016 -6.36111e-015 2.38542e-015 -7.95139e-016 3.18055e-015 8.82781e-032 7.95139e-016 -6.36111e-015 -7.5406e-007 -5.78997e-007 6.80675e-008 7.95139e-016 7.95139e-016 -6.36111e-015 8.82781e-032 7.95139e-016 -6.36111e-015 -7.5406e-007 -5.78997e-007 6.80675e-008 7.95139e-016 7.95139e-016 -6.36111e-015 8.2475 -21.9394 6.69836 12.5728 68.5472 -8.44956 5.26656 27.3995 -3.29796 -8.26314 -21.9418 -6.71163 -12.621 68.5421 8.48532 -5.2938 27.4112 3.30192 
-38.0909 12.4013 -23.51 -0 90 -179.996 -0.304209 4.76739 -0.163593 -0.597824 9.53557 -0.303266 -0.597824 9.53558 -0.303266 -2.51741e-006 -11.8394 -1.56398e-006 -0.0143596 -5.82951 7.76705 -6.4349 10.1288 -2.79133 -46.0347 -0.894849 40.421 12.5067 56.6345 -51.5165 46.1239 16.0475 1.52906 -3.76127e-007 -1.99007e-007 2.83876e-008 1.59028e-015 -3.97569e-015 6.36111e-015 1.15027e-006 -3.5424e-007 -9.4242e-008 -1.59028e-015 2.38542e-015 -0 -3.76127e-007 -1.99007e-007 2.83877e-008 -7.95139e-016 1.59028e-015 -6.36111e-015 1.15027e-006 -3.5424e-007 -9.4242e-008 -3.76127e-007 -1.99007e-007 2.83877e-008 -7.95139e-016 1.59028e-015 -6.36111e-015 1.15027e-006 -3.5424e-007 -9.4242e-008 -1.59028e-015 2.38542e-015 -0 -3.76127e-007 -1.99007e-007 2.83877e-008 -7.95139e-016 1.59028e-015 -6.36111e-015 1.15027e-006 -3.5424e-007 -9.4242e-008 -3.76127e-007 -1.99007e-007 2.83877e-008 -7.95139e-016 1.59028e-015 -6.36111e-015 1.15027e-006 -3.5424e-007 -9.4242e-008 6.25542 10.0687 2.72648 46.0574 -0.992373 -39.2863 -13.2914 55.4192 50.011 -45.899 14.7534 -0.216064 3.8234e-007 -1.86033e-007 -3.40408e-008 1.13675e-006 3.92615e-007 -1.01623e-007 -1.59028e-015 5.56597e-015 -3.18055e-015 -2.64834e-031 -2.38542e-015 -6.36111e-015 3.8234e-007 -1.86033e-007 -3.40408e-008 1.13675e-006 3.92615e-007 -1.01623e-007 -1.59028e-015 2.38542e-015 -0 3.8234e-007 -1.86033e-007 -3.40408e-008 1.13675e-006 3.92615e-007 -1.01623e-007 -1.59028e-015 2.38542e-015 -0 -2.64834e-031 -2.38542e-015 -6.36111e-015 3.8234e-007 -1.86033e-007 -3.40408e-008 1.13675e-006 3.92615e-007 -1.01623e-007 -1.59028e-015 2.38542e-015 -0 3.8234e-007 -1.86033e-007 -3.40408e-008 1.13675e-006 3.92615e-007 -1.01623e-007 -1.59028e-015 2.38542e-015 -0 8.22513 -21.6188 6.6488 11.9258 67.8433 -7.8598 5.35115 27.8249 -3.30521 -8.24034 -21.6201 -6.66166 -11.9699 67.8377 7.89212 -5.37724 27.8359 3.30895 
-38.0908 12.3336 -23.1769 -0 90 -179.996 -0.303175 4.82946 -0.164829 -0.59554 9.65972 -0.305543 -0.59554 9.65972 -0.305542 -4.91536e-007 -11.2574 -3.61966e-007 -0.019823 -5.74282 7.65087 -6.97166 9.64385 -2.84422 -45.8385 -0.822759 40.0776 12.5905 56.5229 -50.9402 45.796 15.8239 1.63054 7.74434e-007 -5.52919e-007 -6.54204e-008 7.40339e-008 -4.97509e-007 6.045e-006 3.76054e-007 1.9919e-007 -2.81305e-008 4.41391e-032 -7.95139e-016 3.18055e-015 7.74434e-007 -5.52919e-007 -6.54204e-008 7.40339e-008 -4.97509e-007 6.045e-006 3.76054e-007 1.9919e-007 -2.81305e-008 7.74434e-007 -5.52919e-007 -6.54204e-008 7.40339e-008 -4.97509e-007 6.045e-006 3.76054e-007 1.9919e-007 -2.81305e-008 4.41391e-032 -7.95139e-016 3.18055e-015 7.74434e-007 -5.52919e-007 -6.54204e-008 7.40339e-008 -4.97509e-007 6.045e-006 3.76054e-007 1.9919e-007 -2.81305e-008 7.74434e-007 -5.52919e-007 -6.54204e-008 7.40339e-008 -4.97509e-007 6.045e-006 3.76054e-007 1.9919e-007 -2.81305e-008 6.80056 9.58625 2.78194 45.8682 -0.92224 -38.9626 -13.3975 55.3202 49.511 -45.5882 14.5867 -0.361487 3.8228e-007 -1.86207e-007 -3.37988e-008 -7.64561e-007 3.72414e-007 6.75976e-008 3.8228e-007 -1.86207e-007 -3.37988e-008 -7.95139e-016 3.18055e-015 -1.27222e-014 3.8228e-007 -1.86207e-007 -3.37988e-008 -7.64561e-007 3.72414e-007 6.75976e-008 3.8228e-007 -1.86207e-007 -3.37988e-008 3.8228e-007 -1.86207e-007 -3.37988e-008 -7.64561e-007 3.72414e-007 6.75976e-008 3.8228e-007 -1.86207e-007 -3.37988e-008 -7.95139e-016 3.18055e-015 -1.27222e-014 3.8228e-007 -1.86207e-007 -3.37988e-008 -7.64561e-007 3.72414e-007 6.75976e-008 3.8228e-007 -1.86207e-007 -3.37988e-008 3.8228e-007 -1.86207e-007 -3.37988e-008 -7.64561e-007 3.72414e-007 6.75976e-008 3.8228e-007 -1.86207e-007 -3.37988e-008 8.20508 -21.3287 6.60463 11.3738 67.2044 -7.35963 5.42806 28.2093 -3.3123 -8.21966 -21.3302 -6.61699 -11.4152 67.1993 7.38942 -5.45311 28.2199 3.31585 
-38.0908 12.2659 -22.844 -0 90 -179.996 -0.302185 4.89162 -0.166068 -0.593341 9.78404 -0.307822 -0.593341 9.78404 -0.307822 -2.27274e-005 -10.675 -5.6541e-006 -0.025111 -5.65613 7.5347 -7.50848 9.15908 -2.90168 -45.6418 -0.751845 39.734 12.6761 56.4117 -50.3649 45.4688 15.5998 1.73058 7.95139e-016 -2.78299e-015 -1.27222e-014 6.73005e-007 6.45786e-007 3.16173e-006 2.42765e-031 4.37326e-015 -3.18055e-015 -2.20695e-032 -3.97569e-016 -3.18055e-015 7.95139e-016 -3.97569e-016 -9.54166e-015 6.73005e-007 6.45786e-007 3.16173e-006 -1.54487e-031 2.78299e-015 3.18055e-015 7.95139e-016 -3.97569e-016 -9.54166e-015 6.73005e-007 6.45786e-007 3.16173e-006 -1.54487e-031 2.78299e-015 3.18055e-015 -2.20695e-032 -3.97569e-016 -3.18055e-015 7.95139e-016 -3.97569e-016 -9.54166e-015 6.73005e-007 6.45786e-007 3.16173e-006 -1.54487e-031 2.78299e-015 3.18055e-015 7.95139e-016 -3.97569e-016 -9.54166e-015 6.73005e-007 6.45786e-007 3.16173e-006 -1.54487e-031 2.78299e-015 3.18055e-015 7.34579 9.10404 2.84201 45.6787 -0.853176 -38.6386 -13.5049 55.2218 49.0118 -45.278 14.4192 -0.505866 -0 0 1.27222e-014 7.45442e-007 1.52891e-006 -6.64799e-008 3.82228e-007 -1.86361e-007 -3.35838e-008 -0 0 1.27222e-014 -1.32417e-031 7.95139e-016 9.54166e-015 7.45442e-007 1.52891e-006 -6.64799e-008 3.82228e-007 -1.86361e-007 -3.35838e-008 -1.32417e-031 7.95139e-016 9.54166e-015 7.45442e-007 1.52891e-006 -6.64799e-008 3.82228e-007 -1.86361e-007 -3.35838e-008 -0 0 1.27222e-014 -1.32417e-031 7.95139e-016 9.54166e-015 7.45442e-007 1.52891e-006 -6.64799e-008 3.82228e-007 -1.86361e-007 -3.35838e-008 -1.32417e-031 7.95139e-016 9.54166e-015 7.45442e-007 1.52891e-006 -6.64799e-008 3.82228e-007 -1.86361e-007 -3.35838e-008 8.18497 -21.0393 6.56087 10.8508 66.5636 -6.88815 5.50543 28.5941 -3.31987 -8.19892 -21.0409 -6.57275 -10.8894 66.559 6.91546 -5.52945 28.6042 3.32321 
-38.0907 12.1981 -22.5112 -0 90 -179.996 -0.301179 4.95386 -0.167297 -0.591111 9.90851 -0.31009 -0.59111 9.90849 -0.31009 1.79017e-006 -10.091 -1.27512e-006 -0.0302215 -5.56939 7.41854 -8.04539 8.6746 -2.96368 -45.4447 -0.682108 39.39 12.7635 56.3009 -49.7908 45.1423 15.3751 1.82922 -1.19271e-015 1.19271e-015 9.54166e-015 -7.74918e-007 5.52374e-007 6.46821e-008 -7.51866e-007 -3.98985e-007 5.54054e-008 -1.59028e-015 1.59028e-015 -0 -1.19271e-015 -1.19271e-015 1.59028e-014 -7.74918e-007 5.52374e-007 6.46821e-008 -7.51866e-007 -3.98985e-007 5.54054e-008 -1.19271e-015 -1.19271e-015 1.59028e-014 -7.74918e-007 5.52374e-007 6.46821e-008 -7.51866e-007 -3.98985e-007 5.54054e-008 -1.59028e-015 1.59028e-015 -0 -1.19271e-015 -1.19271e-015 1.59028e-014 -7.74918e-007 5.52374e-007 6.46821e-008 -7.51866e-007 -3.98985e-007 5.54054e-008 -1.19271e-015 -1.19271e-015 1.59028e-014 -7.74918e-007 5.52374e-007 6.46821e-008 -7.51866e-007 -3.98985e-007 5.54054e-008 7.89113 8.62213 2.90667 45.4887 -0.785175 -38.3143 -13.6136 55.1238 48.5132 -44.9684 14.2509 -0.649202 -1.37943e-008 -3.82686e-007 -1.46804e-007 2.78663e-007 -1.51652e-007 3.13071e-006 7.95139e-016 -3.97569e-015 -0 -7.95139e-016 7.95139e-016 -0 -1.37943e-008 -3.82686e-007 -1.46804e-007 2.78663e-007 -1.51652e-007 3.13071e-006 8.82781e-032 -1.59028e-015 3.18055e-015 -1.37943e-008 -3.82686e-007 -1.46804e-007 2.78663e-007 -1.51652e-007 3.13071e-006 8.82781e-032 -1.59028e-015 3.18055e-015 -7.95139e-016 7.95139e-016 -0 -1.37943e-008 -3.82686e-007 -1.46804e-007 2.78663e-007 -1.51652e-007 3.13071e-006 8.82781e-032 -1.59028e-015 3.18055e-015 -1.37943e-008 -3.82686e-007 -1.46804e-007 2.78663e-007 -1.51652e-007 3.13071e-006 8.82781e-032 -1.59028e-015 3.18055e-015 8.16491 -20.7497 6.5176 10.3541 65.9204 -6.44287 5.58328 28.9793 -3.32793 -8.17834 -20.7509 -6.52905 -10.3898 65.9157 6.46766 -5.60626 28.9889 3.33106 
-38.0907 12.1303 -22.1784 -0 90 -179.996 -0.30016 5.01616 -0.168518 -0.58885 10.0331 -0.312346 -0.588849 10.0331 -0.312345 -1.90249e-005 -9.50684 -4.92194e-006 -0.0351576 -5.48261 7.3024 -8.58243 8.19045 -3.03023 -45.2471 -0.613537 39.0458 12.8527 56.1905 -49.2178 44.8165 15.1498 1.92643 -3.75886e-007 -1.99612e-007 2.75322e-008 1.22395e-007 2.16086e-007 2.8297e-006 -1.15099e-006 3.52548e-007 9.19121e-008 -7.95139e-016 0 3.18055e-015 -3.75886e-007 -1.99612e-007 2.75322e-008 1.22395e-007 2.16086e-007 2.8297e-006 -1.15099e-006 3.52548e-007 9.19121e-008 -3.75886e-007 -1.99612e-007 2.75322e-008 1.22395e-007 2.16086e-007 2.8297e-006 -1.15099e-006 3.52548e-007 9.19121e-008 -7.95139e-016 0 3.18055e-015 -3.75886e-007 -1.99612e-007 2.75322e-008 1.22395e-007 2.16086e-007 2.8297e-006 -1.15099e-006 3.52548e-007 9.19121e-008 -3.75886e-007 -1.99612e-007 2.75322e-008 1.22395e-007 2.16086e-007 2.8297e-006 -1.15099e-006 3.52548e-007 9.19121e-008 8.43664 8.14059 2.97593 45.2984 -0.718257 -37.9898 -13.7235 55.0264 48.0154 -44.6595 14.0818 -0.791515 7.95139e-016 7.95139e-016 -0 1.41427e-006 2.35878e-007 3.02885e-006 3.82143e-007 -1.86608e-007 -3.32357e-008 -7.95139e-016 1.59028e-015 -0 7.95139e-016 -7.95139e-016 6.36111e-015 1.41427e-006 2.35878e-007 3.02885e-006 3.82143e-007 -1.86608e-007 -3.32357e-008 7.95139e-016 -7.95139e-016 6.36111e-015 1.41427e-006 2.35878e-007 3.02885e-006 3.82143e-007 -1.86608e-007 -3.32357e-008 -7.95139e-016 1.59028e-015 -0 7.95139e-016 -7.95139e-016 6.36111e-015 1.41427e-006 2.35878e-007 3.02885e-006 3.82143e-007 -1.86608e-007 -3.32357e-008 7.95139e-016 -7.95139e-016 6.36111e-015 1.41427e-006 2.35878e-007 3.02885e-006 3.82143e-007 -1.86608e-007 -3.32357e-008 8.14486 -20.4603 6.4748 9.88176 65.275 -6.02188 5.66164 29.365 -3.33651 -8.15773 -20.4614 -6.48579 -9.91488 65.2707 6.04439 -5.68357 29.374 3.33941 
